<?xml version="1.0" encoding="UTF-8"?>
<svg id="Layer_2" xmlns="http://www.w3.org/2000/svg" viewBox="0 0 16.15 16.79">
  <defs>
    <style>
      .cls-1 {
        fill: #fff;
      }
    </style>
  </defs>
  <g id="Layer_1-2" data-name="Layer_1">
    <g>
      <rect x="2.96" width="10.23" height="16"/>
      <path class="cls-1" d="M2.59,15.55V0C6.2,0,9.8,0,13.41,0c0,5.57,0,11.15,0,16.72,0,.02,0,.05-.01.07v-1.24h-5.94c.05-.02.11-.03.16-.05.09-.02.11-.05.1-.15,0-.09-.01-.18-.01-.27,0-.01,0-.04.02-.04.09-.06.08-.1,0-.16-.05-.03-.11-.07-.12-.12-.02-.1-.01-.2-.02-.3,0-.04-.02-.07-.03-.11,0-.02-.02-.03-.02-.05,0-.29,0-.58.06-.86.05-.22.1-.43.14-.65.02-.1,0-.2,0-.33.38.31.62.69.71,1.15-.03,0-.06,0-.09,0-.02,0-.04.03-.04.05.01.12.02.25.05.37.05.2.09.4.04.6-.03.1-.04.21-.05.31,0,.22.17.26.3.17.12-.08.23-.16.3-.28.09-.13.18-.27.26-.4.03-.06.07-.12.07-.19,0-.18.08-.33.14-.49.06-.13.09-.28.13-.42,0-.03,0-.08-.01-.1-.13-.18-.3-.3-.53-.32-.02,0-.04,0-.06-.02-.1-.09-.22-.17-.27-.3-.04-.09-.09-.16-.13-.25-.15-.27-.3-.54-.47-.79-.1-.15-.24-.27-.37-.39-.05-.05-.08-.09-.08-.15,0-.25,0-.51,0-.76,0-.05.02-.11.05-.15.21-.31.43-.62.64-.93.03-.04.06-.06.11-.06.12,0,.25-.01.38-.02.08-.53.14-1.07.16-1.61h.12c.01.14.03.28.04.42.03.36.05.71,0,1.07-.01.08-.02.16-.03.25,0,.02,0,.05.02.06.04.03.08.05.12.07.08-.13.06-.27.06-.4,0-.46-.02-.93-.03-1.39,0-.03,0-.06,0-.1q.09-.02.14.05c.07.11.12.23.29.19,0,0,.02,0,.03,0,.04,0,.07,0,.11-.01-.01-.14-.19-.19-.16-.34.16-.08.32-.15.48-.23.05.08.11.17.16.26.05.09.09.18.15.3.03-.08.06-.14.08-.2.02-.06-.03-.08-.07-.11,0,0,0-.01-.01-.02-.06-.11-.11-.22-.17-.34.17-.18.19-.19.21-.35.02-.19.12-.26.28-.3.11-.02.17-.09.18-.2.02-.13.03-.27,0-.4-.03-.2-.09-.39-.14-.58-.05-.17-.12-.34-.24-.48-.06-.08-.09-.16-.04-.26.01-.03.02-.06.02-.09,0-.15,0-.31,0-.46-.01-.2-.03-.41-.23-.54-.01,0-.02-.04-.02-.05,0-.01.03-.02.05-.03.09,0,.17-.01.26-.02.17-.01.19-.04.15-.21,0,0,0-.01,0-.02-.13-.46-.25-.92-.38-1.38-.06-.23-.12-.28-.36-.27-.21,0-.42.02-.63.03,0-.02-.01-.04-.02-.06-.08-.18-.15-.37-.23-.55-.08-.16-.23-.23-.41-.2-.12.02-.24.07-.36.1-.05.01-.1.02-.15,0-.15-.03-.29-.07-.43-.1-.08-.02-.17-.02-.25,0-.16.02-.31.06-.47.09,0-.02-.02-.05-.03-.08-.11-.32-.35-.51-.65-.6-.1-.03-.21-.05-.31-.03-.26.04-.49.15-.66.36-.11.13-.17.25-.1.42,0,.01,0,.03,0,.05,0,.1-.02.2-.02.29,0,.03.02.06.03.09.02.05.05.1.05.16,0,.26.08.49.24.69.02.03.04.05.06.08.03.06.08.08.14.07.03,0,.06,0,.09,0,.15,0,.23.08.23.23,0,.05-.01.08-.07.09-.15.02-.27.09-.37.19-.06.06-.12.12-.16.19-.05.08-.11.17-.12.25-.02.18-.02.36,0,.54.05.3.12.59.12.89,0,.41,0,.82-.12,1.22-.07.22-.06.47-.08.71-.03.3-.04.6-.18.88-.03.06-.03.13-.04.19-.03.2-.04.41-.08.6-.05.2-.06.39,0,.59.06.21.23.38.45.4.03,0,.06-.02.09-.03.09-.05.07-.12.02-.19,0,0,0-.02,0-.03-.02-.05-.03-.11-.07-.14-.11-.09-.13-.2-.1-.33.02-.1.06-.2.09-.3.03-.1.04-.2.01-.3-.01-.04,0-.09,0-.14.05-.15.1-.29.16-.44.05-.13.11-.26.17-.4.05.03.09.05.13.07-.1.15-.13.32-.13.49,0,.12,0,.23,0,.35h-.06c.02.1.03.2.14.25.02.01.05.05.05.08.01.25,0,.5-.06.74-.03.13,0,.2.13.25.02,0,.04.01.06.02.05,0,.06.03.07.07.04.23.08.46.13.68.05.19.08.38,0,.57,0,.02,0,.04-.01.06-.09.35-.05.66.26.89.08.06.09.13.08.21-.05.5,0,1,.09,1.49.07.35.12.69.11,1.05,0,.03,0,.05-.02.08-.01.04-.03.07-.04.11,0,.04,0,.09-.01.13-.09-.01-.22.04-.23.1,0,.06-.04.08-.09.11-.07.05-.15.1-.22.15-.14.1-.27.2-.46.19-.09,0-.16.03-.22.09-.1.09-.09.13,0,.22.12.1.25.16.4.18h-3.42Z"/>
      <rect y="15.55" width="2.96" height=".45"/>
      <rect x="13.19" y="15.55" width="2.96" height=".45"/>
    </g>
  </g>
</svg>