<?xml version="1.0" encoding="UTF-8"?>
<svg id="Layer_2" data-name="Layer 2" xmlns="http://www.w3.org/2000/svg" viewBox="0 0 181.41 69.86">
  <defs>
    <style>
      .cls-1, .cls-2, .cls-3, .cls-4, .cls-5, .cls-6 {
        stroke-miterlimit: 10;
      }

      .cls-1, .cls-2, .cls-5 {
        fill: #fff;
      }

      .cls-1, .cls-3, .cls-4, .cls-6 {
        stroke: #000;
      }

      .cls-1, .cls-4, .cls-5, .cls-6 {
        stroke-width: .5px;
      }

      .cls-7 {
        fill: #39b54a;
      }

      .cls-7, .cls-8, .cls-9 {
        stroke-width: 0px;
      }

      .cls-2 {
        stroke-width: .75px;
      }

      .cls-2, .cls-5 {
        stroke: #fff;
      }

      .cls-8, .cls-6 {
        fill: #000;
      }

      .cls-3 {
        stroke-width: .25px;
      }

      .cls-3, .cls-4 {
        fill: none;
      }

      .cls-9 {
        fill: red;
      }
    </style>
  </defs>
  <g id="Layer_1-2" data-name="Layer 1">
    <g>
      <g>
        <line class="cls-4" x1="32" y1="37.57" x2=".03" y2="41.69"/>
        <line class="cls-3" x1="33.45" y1="31.31" x2="18.59" y2="21.5"/>
        <line class="cls-3" x1="34.21" y1="45.26" x2="25.85" y2="54.1"/>
        <line class="cls-4" x1="34.82" y1="3.14" x2="38.28" y2="20.39"/>
        <ellipse class="cls-4" cx="43.31" cy="34.94" rx="34.18" ry="30"/>
        <ellipse class="cls-3" cx="49.46" cy="33.99" rx="28.03" ry="21.39"/>
        <path class="cls-6" d="M33.12,4.03c.24-.3.85-.96,1.77-1.11.79-.12,1.41.19,1.7.38-.77-.93-1.55-1.86-2.32-2.79l-1.16,3.52Z"/>
        <g>
          <line class="cls-4" x1="45.85" y1="50.07" x2="49.31" y2="67.31"/>
          <path class="cls-6" d="M50.63,66.4c-.17.26-.6.85-1.32,1.03-.61.16-1.13-.06-1.38-.19.68.71,1.36,1.41,2.04,2.12l.65-2.95Z"/>
        </g>
        <polygon class="cls-2" points="49.87 59.36 38.57 8.33 46.23 6.6 52.92 6.72 57.5 7.37 60.79 8.21 65.98 10.26 70.1 12.68 73.03 14.99 75.85 17.89 78.33 21.39 80.18 24.94 81.09 28.52 81.54 32.98 80.82 38.59 79.42 42.48 77.16 46.38 74.2 49.87 69.29 53.81 64.54 56.36 59.43 58.13 49.87 59.36"/>
        <polyline class="cls-2" points="49.89 8.7 54.35 2.84 58.9 3.21 57.37 6.07 54.47 10.6"/>
        <polyline class="cls-2" points="66.27 56.35 69.77 50.75 73.72 51.4 72.57 54.17 70.34 58.51"/>
        <polyline class="cls-2" points="37.03 12.48 40.8 11.59 41.93 13.61 40.27 14.3 37.52 15.21"/>
        <polyline class="cls-2" points="46.93 53.74 50.72 52.81 51.84 54.85 50.17 55.57 47.4 56.5"/>
        <polyline class="cls-2" points="31.34 13.93 35.78 13.66 36 16.21 33.9 16.68 30.53 17.18"/>
        <line class="cls-2" x1="9.28" y1="41.13" x2="10.43" y2="40.98"/>
        <polygon class="cls-2" points="6.85 42 13.43 40.98 16.02 46.22 8.14 48.58 6.85 42"/>
        <polygon class="cls-2" points="19.92 40.53 26.5 39.41 29.08 45.13 21.21 47.7 19.92 40.53"/>
        <line class="cls-2" x1="21.63" y1="39.56" x2="22.79" y2="39.41"/>
        <polygon class="cls-2" points="39.78 60.63 39.56 53.96 45.58 52.18 47.06 60.33 39.78 60.63"/>
        <polygon class="cls-2" points="4.55 33.09 11.58 31.99 14.34 37.63 5.93 40.16 4.55 33.09"/>
        <line class="cls-2" x1="9.27" y1="39.84" x2="10.43" y2="39.63"/>
        <polygon class="cls-2" points="18.14 31.36 24.82 31.45 26.32 37.54 18.11 38.65 18.14 31.36"/>
        <polygon class="cls-2" points="29.6 15.92 32.62 18.89 34.03 17.96 31.5 14.9 29.6 15.92"/>
        <line class="cls-2" x1="36.7" y1="15.92" x2="36.33" y2="14.15"/>
        <path class="cls-6" d="M27.03,54.22c-.23.06-.78.16-1.18-.11-.34-.23-.41-.62-.42-.83-.19.75-.37,1.5-.56,2.25l2.16-1.31Z"/>
        <path class="cls-6" d="M18.52,22.69c-.07-.23-.19-.78.07-1.19.22-.35.61-.43.81-.45-.76-.16-1.51-.31-2.27-.47l1.39,2.11Z"/>
        <polygon class="cls-5" points="48.33 65.13 48.1 63.9 44.91 64.14 42.96 64.03 42.96 66.11 48.33 65.13"/>
        <polygon class="cls-5" points="34.97 6.85 34.74 5.61 31.55 5.85 29.6 5.74 29.6 7.82 34.97 6.85"/>
        <polygon class="cls-5" points="28.38 6.03 29.86 9.76 30.35 9.61 29.06 6.03 28.38 6.03"/>
        <polyline class="cls-5" points="35.61 4.62 36.19 7.14 41.53 6.6 40.97 3.81"/>
        <polygon class="cls-2" points="49.03 62.78 49.55 65.37 55.65 63.75 54.92 61.34 49.03 62.78"/>
      </g>
      <polyline class="cls-1" points="88.69 24.3 88.69 46.37 101.75 46.37"/>
      <path class="cls-1" d="M132.56,29.66l12.86,17.15-12.86-17.15Z"/>
      <path class="cls-1" d="M132.56,34.95v11.8-11.8Z"/>
      <path class="cls-1" d="M154.54,24.92h7.88-7.88Z"/>
      <path class="cls-1" d="M154.54,46.37h7.88-7.88Z"/>
      <path class="cls-4" d="M73.11,35.32c1.09.16,2.59.3,4.38.2,3.37-.19,5.69-.31,6.96-1.99,1.48-1.96,1.14-5.52-.99-7.56-2.51-2.4-6.11-1.34-6.56-1.19-2.57.81-3.85,2.82-4.18,3.38v18.21"/>
      <path class="cls-4" d="M132.56,35.34c3.45.56,6.19.29,7.99-.03,2.34-.42,3.2-.96,3.78-1.58,1.7-1.81,1.22-4.44,1.19-4.57-.48-2.4-2.7-4.33-5.57-4.77"/>
      <path class="cls-1" d="M139.95,24.38c-.33-.05-3.6-.46-5.8,1.94-1.26,1.36-1.52,2.94-1.59,3.58"/>
      <path class="cls-1" d="M154.54,35.79h7.88-7.88Z"/>
      <path class="cls-1" d="M168.11,29.65l12.86,17.15-12.86-17.15Z"/>
      <path class="cls-1" d="M168.11,34.94v11.8-11.8Z"/>
      <path class="cls-4" d="M168.11,35.33c3.45.56,6.19.29,7.99-.03,2.34-.42,3.2-.96,3.78-1.58,1.7-1.81,1.22-4.44,1.19-4.57-.48-2.4-2.7-4.33-5.57-4.77"/>
      <path class="cls-1" d="M175.5,24.37c-.33-.05-3.6-.46-5.8,1.94-1.26,1.36-1.52,2.94-1.59,3.58"/>
      <ellipse class="cls-1" cx="115.62" cy="35.79" rx="12.59" ry="11.75"/>
      <path class="cls-1" d="M41.94,35.79h7.88-7.88Z"/>
      <path class="cls-1" d="M41.94,46.79h7.88-7.88Z"/>
      <path class="cls-1" d="M41.94,24.92h7.88-7.88Z"/>
      <path class="cls-1" d="M53.28,24.3l13.24,22.06-13.24-22.06Z"/>
      <path class="cls-1" d="M66.52,24.3l-13.24,22.06,13.24-22.06Z"/>
      <g>
        <rect class="cls-1" x="37.97" y="24.79" width="1.96" height="22"/>
        <polyline class="cls-1" points="39.66 25 38.44 26.72 39.66 28.19 38.44 30.33 39.66 32.31 38.44 34.15 39.66 35.75 38.44 37.81 39.66 39.23 38.44 41.05 39.66 42.34 38.44 43.98 39.66 45.32 38.44 46.58"/>
        <polyline class="cls-7" points="38.75 26.71 39.69 27.83 39.69 25.4"/>
        <polyline class="cls-7" points="39.69 28.66 38.73 30.32 39.69 31.87"/>
        <polyline class="cls-7" points="38.75 34.13 39.69 32.71 39.69 35.38"/>
        <polyline class="cls-7" points="39.69 36.21 38.75 37.77 39.69 38.89"/>
        <polyline class="cls-7" points="39.69 39.64 38.75 41.02 39.69 42.02"/>
        <polyline class="cls-7" points="39.68 42.73 38.77 43.97 39.68 44.98"/>
        <polyline class="cls-7" points="39.68 45.67 38.82 46.54 39.68 46.54"/>
        <polyline class="cls-8" points="38.26 46.4 38.22 46.45 38.22 46.54 38.4 46.54"/>
        <polyline class="cls-9" points="38.22 44.1 39.32 45.31 38.22 46.45"/>
        <polyline class="cls-9" points="38.22 41.18 38.22 43.85 39.32 42.36"/>
        <polyline class="cls-9" points="38.22 37.95 38.22 40.9 39.38 39.24"/>
        <polyline class="cls-9" points="38.22 34.29 39.38 35.79 38.22 37.69"/>
        <polyline class="cls-9" points="38.23 30.45 38.22 34.04 39.38 32.31"/>
        <polyline class="cls-9" points="38.22 26.86 38.22 30.19 39.38 28.22"/>
        <polyline class="cls-9" points="38.22 25 39.33 25 38.22 26.58"/>
      </g>
      <g>
        <rect class="cls-1" x="151.03" y="24.79" width="1.96" height="22"/>
        <polyline class="cls-1" points="152.71 25 151.49 26.72 152.71 28.19 151.49 30.33 152.71 32.31 151.49 34.15 152.71 35.75 151.49 37.81 152.71 39.23 151.49 41.05 152.71 42.34 151.49 43.98 152.71 45.32 151.49 46.58"/>
        <polyline class="cls-7" points="151.8 26.71 152.74 27.83 152.74 25.4"/>
        <polyline class="cls-7" points="152.74 28.66 151.78 30.32 152.74 31.87"/>
        <polyline class="cls-7" points="151.8 34.13 152.74 32.71 152.74 35.38"/>
        <polyline class="cls-7" points="152.74 36.21 151.8 37.77 152.74 38.89"/>
        <polyline class="cls-7" points="152.74 39.64 151.8 41.02 152.74 42.02"/>
        <polyline class="cls-7" points="152.73 42.73 151.82 43.97 152.73 44.98"/>
        <polyline class="cls-7" points="152.73 45.67 151.87 46.54 152.73 46.54"/>
        <polyline class="cls-8" points="151.31 46.4 151.27 46.45 151.27 46.54 151.45 46.54"/>
        <polyline class="cls-9" points="151.27 44.1 152.37 45.31 151.27 46.45"/>
        <polyline class="cls-9" points="151.27 41.18 151.27 43.85 152.37 42.36"/>
        <polyline class="cls-9" points="151.27 37.95 151.27 40.9 152.43 39.24"/>
        <polyline class="cls-9" points="151.27 34.29 152.43 35.79 151.27 37.69"/>
        <polyline class="cls-9" points="151.28 30.45 151.27 34.04 152.43 32.31"/>
        <polyline class="cls-9" points="151.27 26.86 151.27 30.19 152.43 28.22"/>
        <polyline class="cls-9" points="151.27 25 152.38 25 151.27 26.58"/>
      </g>
    </g>
  </g>
</svg>